<?xml version="1.0" encoding="UTF-8"?>
<svg id="Layer_1" data-name="Layer 1" xmlns="http://www.w3.org/2000/svg" viewBox="0 0 1080 1080">
  <defs>
    <style>
      .cls-1 {
        fill: #131313;
      }

      .cls-2 {
        fill: #f9fafb;
      }
    </style>
  </defs>
  <circle class="cls-2" cx="540" cy="540" r="486.77"/>
  <g>
    <path class="cls-1" d="m543.97,648.36c-.22,1.99,0,0,0,0-7.08-.79-13.38-2.78-12.26-14.93,14.18-154.18-10.46-213.7-66.23-354.26-4.39-11.08.75-15.12,7.41-17.83-.71-1.74,0,0,0,0,6.66-2.71,11.95-4.02,16.28,7.59,54.97,147.37,82.7,205.96,68.27,368.11-1.14,12.79-6.38,12.11-13.46,11.32h-.01,0Z"/>
    <path class="cls-1" d="m533.07,653.97c-1.12,1.66,0,0,0,0-5.89-4.01-10.54-8.7-3.86-18.93,84.57-129.68,90.59-193.83,106.95-344.17,1.28-11.85,7.72-13.02,14.88-12.31.19-1.88,0,0,0,0,7.16.71,12.44,2.03,10.85,14.32-20.25,155.98-23.1,220.74-111.61,357.36-6.97,10.77-11.3,7.73-17.19,3.72h-.02Z"/>
    <path class="cls-1" d="m529.2,647.3c-1.81.85,0,0,0,0-3.02-6.46-4.62-12.86,6.33-18.26,138.9-68.38,176.8-120.48,267.59-241.43,7.16-9.53,13.28-7.26,19.08-2.99,1.12-1.52,0,0,0,0,5.79,4.27,9.67,8.09,2.02,17.85-97,123.82-132.49,178.06-278.34,250.39-11.49,5.7-13.67.88-16.68-5.56Z"/>
    <path class="cls-1" d="m537.13,648.38c.47,1.95,0,0,0,0-6.93,1.65-13.53,1.92-16.59-9.91-38.79-149.89-82.12-197.57-182.15-310.98-7.88-8.94-4.41-14.47.93-19.28-1.26-1.4,0,0,0,0,5.35-4.81,9.88-7.82,17.88,1.64,101.57,120.09,147.49,165.84,188.75,323.32,3.25,12.41-1.91,13.56-8.84,15.21h.02Z"/>
    <path class="cls-1" d="m540.14,642.54c1.32,1.5,0,0,0,0-5.38,4.67-11.11,7.97-19.29-1.09-103.84-114.84-164.32-137.02-305.52-191.17-11.13-4.27-10.62-10.79-8.1-17.52-1.77-.65,0,0,0,0,2.52-6.73,5.13-11.51,16.61-6.84,145.66,59.35,207.56,78.61,317.09,199.04,8.63,9.49,4.59,12.9-.79,17.57h.01-.01Z"/>
    <circle class="cls-1" cx="540.16" cy="638.09" r="23.7"/>
    <path class="cls-1" d="m966.11,638.38l-11.44-42.66c-2.07-7.74-10.03-12.34-17.76-10.26l-368.16,98.64c-2.99.8-5.69,2.52-7.51,5.02-3.87,5.3-11.93,8.95-21.24,8.95s-17.37-3.65-21.24-8.95c-1.82-2.5-4.52-4.22-7.51-5.02l-368.16-98.64c-7.73-2.08-15.69,2.52-17.76,10.26l-11.44,42.66c-2.07,7.74,2.53,15.7,10.26,17.77l372.73,99.87c5.73,1.54,11.64,2.31,17.57,2.31h51.09c5.93,0,11.84-.78,17.57-2.31l372.73-99.87c7.73-2.07,12.33-10.03,10.26-17.77h0Z"/>
  </g>
</svg>